<?xml version="1.0" encoding="UTF-8"?>
<svg id="Layer_1" data-name="Layer 1" xmlns="http://www.w3.org/2000/svg" version="1.1" viewBox="0 0 330.25 380.29">
  <defs>
    <style>
      .cls-1 {
        fill: #3be900;
      }

      .cls-1, .cls-2, .cls-3 {
        stroke: #000;
        stroke-miterlimit: 10;
        stroke-width: 3.19px;
      }

      .cls-2, .cls-4 {
        fill: #000;
      }

      .cls-4, .cls-5 {
        stroke-width: 0px;
      }

      .cls-3 {
        fill: #961b1e;
      }

      .cls-5 {
        fill: #fff;
      }
    </style>
  </defs>
  <path class="cls-3" d="M1.6,1.6v377.1h164.3v-50.07H56.36c40.68-25.96,81.36-51.92,122.04-77.87,14.09-8.99,29.37-37.96,30.95-54.15-10.95-15.13-1.51-49.82-22.43-21.28-5.72,7.81-3.52,6.23-5.72,7.81-45.26,32.33-90.52,64.66-135.78,96.99.52-26.6,1.04-53.2,1.56-79.8,0,0,35.99-208.11,148.65-92.32,112.66,115.79,59.46,270.7,59.46,270.7h73.54c-1.69-101.7-92.32-239.4-59.46-314.51-.4-24,53.2-62.59,53.2-62.59h-31.21c-65.22,0-97.59,28.17-162.81,28.17-15.13,0-63.11-28.17-78.24-28.17H1.6Z"/>
  <path class="cls-1" d="M179.19,158.62c0,25.49-20.66,46.15-46.15,46.15s-46.15-20.66-46.15-46.15,20.66-46.15,46.15-46.15c11.46,0,21.95,4.18,30.02,11.1,9.87,8.46,16.12,21.03,16.12,35.05Z"/>
  <circle class="cls-4" cx="113.66" cy="183.41" r="13.7"/>
  <path class="cls-2" d="M89.46,169.71l62.18-52.23s-18.21-11.97-42.71,2.78c-24.51,14.75-19.47,49.45-19.47,49.45Z"/>
  <circle class="cls-5" cx="112.22" cy="191.47" r="5.14"/>
  <polyline class="cls-2" points="58.84 270.52 64.01 278.22 70.2 274.37 64.52 266.47"/>
  <polyline class="cls-2" points="76.34 258.03 86.89 272.34 94.19 266.47 83.15 253.16"/>
  <polyline class="cls-2" points="98.01 242.55 105.79 253.16 112.22 247.86 105.11 237.47"/>
  <polyline class="cls-2" points="119.99 226.85 130.17 242.62 137.52 237.47 127.36 221.58"/>
  <path class="cls-2" d="M186.92,245.32"/>
  <polyline class="cls-2" points="79.51 313.85 70.2 302.73 79.51 296.06 86.89 309.14"/>
  <polyline class="cls-2" points="102.48 299.19 86.89 287.57 94.69 283.33 110.13 294.32"/>
  <polyline class="cls-2" points="119.99 288.02 112.22 280.9 122.65 275.45 128.75 281.74"/>
  <polyline class="cls-2" points="137.52 275.45 128.75 262.75 137.52 256.65 148.98 269.53"/>
  <polyline class="cls-2" points="137.52 214.32 144.48 223.79 153.23 219.06 145.38 208.71"/>
  <path class="cls-4" d="M162.95,251.85s-27.59,12.79-13.96-6.53h0c.41-.28,7.85-6.98,8.64-7.42,5.05-2.77,7.99-5.97,9.4-7.39.01-.01,5.21-8.14,5.21-8.14.06-.06,2.71-4.49,2.73-4.5.11-.11,2.96-4.81,3.14-5.07,6.82-10.38,17.5-17.64,26.25-26.46l4.72,9.47-2.05,15.09-44.06,40.95Z"/>
</svg>