<?xml version="1.0" encoding="UTF-8"?>
<svg id="Layer_1" data-name="Layer 1" xmlns="http://www.w3.org/2000/svg" version="1.1" viewBox="0 0 512 512">
  <defs>
    <style>
      .cls-1 {
        stroke: #000;
      }

      .cls-1, .cls-2 {
        stroke-miterlimit: 10;
      }

      .cls-1, .cls-3 {
        fill: #000;
      }

      .cls-2 {
        fill: none;
        stroke: #f4e300;
        stroke-width: 45px;
      }

      .cls-3 {
        stroke-width: 0px;
      }
    </style>
  </defs>
  <line class="cls-2" x1="-9.1" y1="65.44" x2="530.89" y2="166.47"/>
  <line class="cls-2" x1="530.89" y1="166.47" x2="-16.4" y2="277.63"/>
  <line class="cls-2" x1="-13.3" y1="288.77" x2="527.12" y2="432.3"/>
  <g>
    <path class="cls-3" d="M154.91,239.1c-1.16-2.64-3.06-3.66-5.67-3.11-3.7.78-5.24,4.15-4.18,9.16,1.05,4.94,3.93,7.47,7.69,6.67,1.67-.35,2.95-1.35,3.57-2.75.36-.84.45-1.49.36-2.8l6.51-.4c-.03,2.7-.38,4.33-1.34,6.08-1.42,2.55-4.12,4.33-7.79,5.11-3.7.78-7.07.29-9.69-1.43-2.73-1.8-4.75-5.08-5.61-9.14-.87-4.12-.34-7.88,1.56-10.76,1.66-2.48,4.49-4.25,8.04-5,3.91-.83,7.26-.14,9.79,2.08,1.23,1.04,1.99,2.05,2.76,3.76l-5.99,2.54Z"/>
    <path class="cls-3" d="M164.79,244.49c-1.29-6.07,1.78-10.74,7.91-12.04,6.13-1.3,10.83,1.73,12.1,7.74,1.28,6.04-1.88,10.89-7.91,12.17-6.1,1.29-10.8-1.77-12.09-7.86ZM170.58,243.23c.71,3.37,2.72,5.06,5.36,4.5,2.64-.56,3.74-2.85,3.02-6.22-.72-3.4-2.69-5.07-5.27-4.53-2.67.57-3.82,2.9-3.12,6.24Z"/>
    <path class="cls-3" d="M189.23,249c-.11-1.43-.32-2.72-.73-4.63l-1.98-9.34c-.49-2.31-.78-3.38-1.21-4.53l6-1.27.27,1.27q.03.12.06.43s.01.06.03.15c0,.03.02.09.03.15,1.19-2.03,2.87-3.21,5.27-3.71,1.58-.33,2.96-.25,4.11.27.63.28,1.01.58,1.56,1.25,1.49-2.25,3.17-3.43,5.81-3.99,4.34-.92,7.05.98,8.02,5.56l1.59,7.52c.4,1.88.72,3.11,1.21,4.5l-6.31,1.34c-.12-1.46-.29-2.57-.73-4.63l-1.32-6.25c-.48-2.28-1.34-3.01-3.06-2.65-1.55.33-2.69,1.84-3.01,4.03l1.31,6.19c.39,1.82.72,3.08,1.21,4.5l-6.31,1.34c-.11-1.4-.32-2.69-.73-4.63l-1.32-6.25c-.27-1.27-.51-1.82-1.02-2.26-.44-.42-1.1-.56-1.83-.41-1.64.35-2.78,1.83-3.19,4.07l1.3,6.13c.41,1.91.72,3.08,1.21,4.53l-6.25,1.32Z"/>
    <path class="cls-3" d="M223.34,215.4l.96,4.55-6.16,1.3-.96-4.55,6.16-1.31ZM224.86,222.12c.08,1.28.28,2.51.73,4.63l1.98,9.34c.35,1.64.79,3.26,1.21,4.53l-6.34,1.34c-.13-1.53-.32-2.69-.73-4.63l-1.98-9.34c-.42-1.97-.74-3.2-1.21-4.53l6.34-1.34Z"/>
    <path class="cls-3" d="M231.99,239.94c-.12-1.46-.33-2.75-.73-4.63l-1.98-9.34c-.44-2.09-.77-3.35-1.21-4.53l6.04-1.28.27,1.27c.04.18.1.64.15.86,1.53-2.22,3.21-3.38,5.7-3.9,2.09-.44,3.88-.22,5.24.66,1.47.96,2.3,2.33,2.81,4.73l1.61,7.61c.37,1.76.79,3.26,1.21,4.5l-6.31,1.34c-.12-1.5-.34-2.78-.73-4.63l-1.32-6.22c-.26-1.21-.49-1.7-.96-2.14-.51-.46-1.27-.62-2.18-.42-1.7.36-2.99,1.74-3.84,4.14l1.3,6.13c.37,1.73.7,2.99,1.21,4.53l-6.28,1.33Z"/>
    <path class="cls-3" d="M258.21,233.85c1.35,1.14,3.05,1.51,5.05,1.08,1.67-.35,2.88-1.08,3.42-2.12.48-.86.56-1.83.28-3.45-1.25,1.72-2.76,2.68-5.1,3.17-5.28,1.12-9.35-1.63-10.52-7.15-1.14-5.4,1.53-9.67,6.72-10.77,2.25-.48,3.99-.31,5.89.59-.05-.24-.07-.33-.14-.67l-.13-.64,5.95-1.26c.11,1.4.27,2.48.65,4.27l2.26,10.65c.77,3.64.26,6.32-1.55,8.25-1.39,1.5-3.81,2.68-6.84,3.32-4.12.87-7.07.42-9.69-1.46l3.76-3.81ZM262.06,227.93c2.49-.53,3.87-2.82,3.3-5.52-.57-2.7-2.77-4.26-5.23-3.74-2.43.51-3.61,2.7-3.01,5.52.59,2.79,2.55,4.25,4.95,3.74Z"/>
    <path class="cls-3" d="M290.93,218.86c.35,1.07.68,1.57,1.26,2.08.92.76,2.3,1,3.85.67,2.34-.5,3.51-1.82,3.15-3.52-.2-.94-.86-1.66-1.72-1.85-.7-.17-1.51-.22-4.81-.28-2.92-.01-3.97-.17-5.26-.72-2.19-.93-3.65-2.74-4.18-5.2-.99-4.67,2.15-8.41,8.12-9.68,3.85-.82,7.04-.26,9.17,1.67.97.84,1.53,1.67,2.29,3.32l-6.28,2.06c-.78-1.89-2.05-2.48-4.35-1.99-1.85.39-3,1.68-2.71,3.08.18.85.77,1.39,1.84,1.64q.66.15,4.4.11c2.41,0,3.97.2,5.28.69,2.47.9,4,2.7,4.59,5.49.48,2.27.17,4.37-.94,6.03-1.4,2.07-3.88,3.52-7.43,4.27-2.58.55-5.24.54-7.08-.05-1.7-.53-3.1-1.59-4.1-3.19-.46-.66-.76-1.33-1.26-2.68l6.18-1.94Z"/>
    <path class="cls-3" d="M307.27,214.29c-1.29-6.07,1.78-10.74,7.91-12.04s10.83,1.73,12.1,7.74c1.28,6.04-1.88,10.89-7.91,12.17-6.1,1.29-10.8-1.77-12.09-7.86ZM313.05,213.03c.71,3.37,2.72,5.07,5.36,4.51,2.64-.56,3.74-2.85,3.02-6.22-.72-3.4-2.69-5.07-5.27-4.53-2.67.57-3.82,2.9-3.11,6.24Z"/>
    <path class="cls-3" d="M328.95,209.69c-1.29-6.07,1.78-10.74,7.91-12.04,6.13-1.3,10.83,1.73,12.1,7.74,1.28,6.04-1.88,10.89-7.91,12.17-6.1,1.29-10.8-1.77-12.09-7.86ZM334.73,208.43c.71,3.37,2.72,5.07,5.36,4.51s3.74-2.85,3.03-6.22c-.72-3.4-2.69-5.07-5.27-4.53-2.67.57-3.82,2.9-3.12,6.24Z"/>
    <path class="cls-3" d="M353.39,214.21c-.12-1.46-.33-2.75-.73-4.63l-1.98-9.34c-.44-2.09-.78-3.35-1.21-4.53l6.04-1.28.27,1.27c.04.18.11.64.15.86,1.53-2.23,3.21-3.38,5.7-3.9,2.09-.44,3.88-.22,5.24.66,1.47.96,2.3,2.33,2.81,4.73l1.61,7.61c.37,1.76.79,3.26,1.21,4.5l-6.31,1.34c-.12-1.49-.34-2.78-.73-4.63l-1.32-6.22c-.26-1.21-.49-1.7-.96-2.14-.51-.46-1.27-.62-2.18-.43-1.7.36-2.99,1.74-3.84,4.14l1.3,6.13c.37,1.73.7,2.99,1.21,4.53l-6.28,1.33Z"/>
  </g>
  <g>
    <path class="cls-3" d="M161.25,329.77c.17-2.88-1.05-4.65-3.63-5.35-3.65-.99-6.55,1.31-7.89,6.25-1.32,4.88.09,8.44,3.8,9.45,1.65.45,3.24.14,4.43-.82.7-.58,1.07-1.12,1.59-2.33l5.97,2.61c-1.26,2.39-2.31,3.68-3.97,4.8-2.43,1.62-5.64,1.97-9.26.99-3.65-.99-6.43-2.96-7.97-5.69-1.61-2.84-1.92-6.69-.83-10.7,1.1-4.07,3.29-7.17,6.29-8.87,2.61-1.45,5.93-1.73,9.43-.79,3.86,1.04,6.53,3.18,7.77,6.31.62,1.49.83,2.73.75,4.6l-6.49-.47Z"/>
    <path class="cls-3" d="M167.59,339.07c1.62-5.99,6.48-8.75,12.53-7.11,6.04,1.64,8.85,6.48,7.24,12.4-1.61,5.96-6.63,8.84-12.59,7.22-6.02-1.63-8.81-6.5-7.18-12.51ZM173.31,340.59c-.9,3.32.11,5.75,2.72,6.45,2.6.71,4.63-.83,5.53-4.16.91-3.35-.08-5.74-2.63-6.43-2.63-.71-4.72.84-5.62,4.13Z"/>
    <path class="cls-3" d="M187.28,354.23c.55-1.33.95-2.57,1.46-4.45l2.5-9.22c.62-2.27.85-3.37.98-4.58l5.93,1.6-.34,1.26q-.03.12-.14.41s-.02.06-.04.15c0,.03-.02.09-.04.15,1.98-1.26,4.02-1.55,6.38-.91,1.56.42,2.75,1.13,3.54,2.11.43.54.64.97.82,1.83,2.35-1.32,4.39-1.61,6.99-.9,4.28,1.16,5.83,4.08,4.61,8.6l-2.01,7.42c-.5,1.85-.77,3.1-.98,4.55l-6.23-1.69c.56-1.36.91-2.42,1.46-4.46l1.67-6.16c.61-2.25.18-3.29-1.52-3.75-1.53-.41-3.23.41-4.52,2.21l-1.65,6.11c-.49,1.79-.77,3.07-.98,4.55l-6.23-1.69c.54-1.3.94-2.54,1.46-4.45l1.67-6.17c.34-1.26.37-1.86.12-2.47-.2-.57-.73-1-1.44-1.19-1.62-.44-3.31.36-4.7,2.17l-1.64,6.04c-.51,1.89-.77,3.07-.98,4.58l-6.16-1.67Z"/>
    <path class="cls-3" d="M231.25,346.54c-.51,1.18-.9,2.36-1.46,4.45l-2.5,9.22c-.44,1.62-.79,3.26-.98,4.58l-6.25-1.69c.58-1.42.94-2.54,1.46-4.45l2.5-9.22c.53-1.95.8-3.19.98-4.58l6.25,1.69ZM232.95,339.88l-1.22,4.49-6.08-1.65,1.22-4.49,6.08,1.65Z"/>
    <path class="cls-3" d="M229.47,365.66c.56-1.36.96-2.6,1.46-4.45l2.5-9.22c.56-2.06.84-3.34.98-4.58l5.96,1.61-.34,1.26c-.05.18-.2.62-.26.83,2.37-1.29,4.4-1.54,6.85-.87,2.06.56,3.56,1.57,4.36,2.98.87,1.52.98,3.12.34,5.49l-2.03,7.51c-.47,1.73-.79,3.26-.98,4.55l-6.23-1.69c.57-1.39.97-2.63,1.46-4.45l1.66-6.13c.32-1.2.34-1.74.12-2.34-.24-.64-.85-1.13-1.75-1.37-1.68-.45-3.46.19-5.31,1.93l-1.64,6.04c-.46,1.71-.74,2.98-.98,4.58l-6.19-1.68Z"/>
    <path class="cls-3" d="M255.58,372.18c.68,1.63,2.02,2.73,4,3.27,1.65.45,3.06.34,4.01-.33.82-.55,1.33-1.37,1.82-2.94-1.9.96-3.68,1.12-5.98.5-5.21-1.41-7.58-5.71-6.1-11.16,1.44-5.33,5.77-7.91,10.89-6.53,2.22.6,3.69,1.54,4.98,3.21.06-.24.09-.33.18-.66l.17-.63,5.87,1.59c-.54,1.3-.89,2.33-1.37,4.1l-2.84,10.5c-.97,3.59-2.65,5.74-5.14,6.64-1.93.7-4.61.65-7.6-.16-4.07-1.1-6.49-2.85-7.96-5.72l5.08-1.68ZM261.71,368.67c2.45.66,4.73-.74,5.45-3.41.72-2.66-.53-5.06-2.95-5.71-2.39-.65-4.45.76-5.2,3.54-.75,2.75.33,4.94,2.7,5.58Z"/>
    <path class="cls-3" d="M291.54,373.76c-.17,1.11-.11,1.71.18,2.43.48,1.09,1.6,1.94,3.12,2.35,2.3.62,3.96-.02,4.41-1.7.25-.93,0-1.87-.69-2.43-.55-.47-1.24-.88-4.16-2.44-2.59-1.34-3.45-1.96-4.35-3.04-1.53-1.83-2-4.11-1.35-6.53,1.25-4.61,5.75-6.51,11.64-4.91,3.8,1.03,6.39,2.98,7.4,5.67.48,1.19.6,2.19.52,4l-6.53-1.03c.17-2.04-.69-3.14-2.97-3.76-1.83-.49-3.44.13-3.81,1.5-.23.84.05,1.59.89,2.3q.52.43,3.86,2.11c2.14,1.09,3.44,1.99,4.39,3.02,1.79,1.93,2.32,4.23,1.58,6.98-.61,2.24-1.84,3.97-3.59,4.94-2.19,1.21-5.06,1.36-8.56.41-2.54-.69-4.91-1.91-6.28-3.27-1.27-1.24-2.03-2.83-2.2-4.71-.1-.8-.07-1.53.1-2.96l6.39,1.09Z"/>
    <path class="cls-3" d="M308.16,377.14c1.62-5.99,6.48-8.75,12.53-7.11,6.04,1.64,8.85,6.48,7.24,12.4-1.61,5.96-6.63,8.84-12.59,7.22-6.02-1.63-8.81-6.5-7.18-12.51ZM313.89,378.66c-.9,3.32.11,5.75,2.72,6.45,2.6.71,4.62-.83,5.53-4.16.91-3.35-.08-5.74-2.63-6.43-2.63-.71-4.72.84-5.62,4.13Z"/>
    <path class="cls-3" d="M329.56,382.93c1.62-5.99,6.48-8.75,12.53-7.11,6.04,1.64,8.85,6.48,7.24,12.4-1.61,5.96-6.63,8.84-12.59,7.22-6.02-1.63-8.81-6.5-7.18-12.51ZM335.28,384.45c-.9,3.32.12,5.75,2.72,6.45s4.63-.83,5.53-4.16c.91-3.35-.08-5.74-2.63-6.43-2.63-.71-4.73.84-5.62,4.13Z"/>
    <path class="cls-3" d="M349.25,398.09c.56-1.36.96-2.6,1.46-4.45l2.5-9.22c.56-2.07.84-3.34.98-4.58l5.96,1.61-.34,1.26c-.05.18-.2.62-.26.83,2.37-1.29,4.4-1.54,6.85-.87,2.06.56,3.56,1.57,4.37,2.98.87,1.52.98,3.13.34,5.49l-2.04,7.51c-.47,1.74-.79,3.26-.98,4.55l-6.23-1.69c.57-1.39.97-2.63,1.46-4.45l1.66-6.14c.32-1.2.34-1.74.12-2.34-.24-.64-.85-1.13-1.75-1.37-1.68-.45-3.46.19-5.31,1.93l-1.64,6.05c-.46,1.71-.74,2.98-.98,4.58l-6.2-1.68Z"/>
  </g>
  <g>
    <path class="cls-3" d="M161.5,91.1c-.05-2.88-1.4-4.56-4.02-5.06-3.72-.71-6.44,1.8-7.39,6.83-.95,4.96.73,8.41,4.51,9.13,1.68.32,3.24-.11,4.36-1.16.66-.63.99-1.2,1.41-2.45l6.16,2.15c-1.07,2.48-2.03,3.84-3.59,5.09-2.3,1.8-5.48,2.4-9.16,1.69-3.72-.71-6.63-2.46-8.38-5.07-1.82-2.71-2.42-6.52-1.64-10.6.79-4.14,2.74-7.4,5.6-9.32,2.49-1.64,5.78-2.18,9.35-1.5,3.93.75,6.75,2.68,8.22,5.7.74,1.43,1.04,2.66,1.09,4.53l-6.51.02Z"/>
    <path class="cls-3" d="M168.53,99.89c1.16-6.09,5.8-9.22,11.95-8.04,6.15,1.17,9.31,5.78,8.16,11.81-1.16,6.06-5.94,9.31-12,8.16-6.12-1.17-9.28-5.81-8.11-11.93ZM174.36,100.96c-.64,3.38.55,5.72,3.2,6.23,2.65.51,4.55-1.18,5.2-4.56.65-3.41-.52-5.72-3.11-6.21-2.68-.51-4.65,1.2-5.29,4.55Z"/>
    <path class="cls-3" d="M189.32,113.51c.45-1.37.75-2.63,1.12-4.55l1.79-9.38c.44-2.31.59-3.42.63-4.65l6.03,1.15-.24,1.28q-.02.12-.11.42s-.01.06-.03.15c0,.03-.02.09-.03.15,1.88-1.41,3.89-1.85,6.29-1.39,1.58.3,2.82.92,3.69,1.84.47.5.71.92.96,1.76,2.24-1.5,4.25-1.93,6.9-1.43,4.35.83,6.13,3.63,5.25,8.23l-1.44,7.55c-.36,1.89-.54,3.15-.63,4.62l-6.33-1.21c.46-1.4.73-2.48,1.12-4.55l1.2-6.27c.44-2.28-.07-3.29-1.8-3.63-1.55-.3-3.19.66-4.34,2.55l-1.18,6.21c-.35,1.83-.53,3.12-.63,4.61l-6.33-1.21c.44-1.34.75-2.6,1.12-4.55l1.2-6.27c.24-1.28.23-1.88-.06-2.47-.24-.55-.8-.94-1.53-1.08-1.64-.31-3.27.61-4.52,2.52l-1.17,6.15c-.37,1.92-.53,3.12-.63,4.65l-6.27-1.2Z"/>
    <path class="cls-3" d="M232.57,102.5c-.42,1.21-.71,2.42-1.12,4.55l-1.79,9.38c-.31,1.64-.54,3.31-.63,4.65l-6.37-1.21c.47-1.46.75-2.6,1.12-4.55l1.79-9.38c.38-1.98.55-3.24.63-4.65l6.37,1.21ZM233.77,95.72l-.87,4.57-6.18-1.18.87-4.57,6.18,1.18Z"/>
    <path class="cls-3" d="M232.26,121.69c.46-1.4.76-2.66,1.12-4.55l1.79-9.38c.4-2.1.58-3.39.63-4.65l6.06,1.16-.24,1.28c-.04.18-.15.63-.19.85,2.27-1.46,4.27-1.87,6.77-1.39,2.1.4,3.67,1.3,4.58,2.64.99,1.45,1.22,3.04.76,5.45l-1.46,7.64c-.34,1.77-.54,3.31-.63,4.62l-6.33-1.21c.46-1.43.77-2.69,1.12-4.55l1.19-6.24c.23-1.22.21-1.76-.06-2.35-.29-.62-.93-1.06-1.85-1.24-1.71-.33-3.43.45-5.15,2.33l-1.17,6.15c-.33,1.74-.51,3.03-.63,4.64l-6.3-1.2Z"/>
    <path class="cls-3" d="M258.79,126.22c.8,1.57,2.22,2.57,4.23,2.95,1.68.32,3.07.11,3.97-.63.78-.61,1.23-1.47,1.6-3.07-1.82,1.11-3.58,1.4-5.93.95-5.3-1.01-7.99-5.12-6.93-10.66,1.03-5.42,5.16-8.33,10.36-7.34,2.25.43,3.8,1.26,5.21,2.82.05-.24.06-.33.13-.67l.12-.64,5.97,1.14c-.44,1.33-.71,2.39-1.05,4.19l-2.04,10.69c-.7,3.66-2.2,5.92-4.62,7.01-1.87.84-4.55,1-7.59.42-4.14-.79-6.69-2.35-8.37-5.1l4.94-2.06ZM264.63,122.25c2.5.48,4.66-1.1,5.18-3.81.52-2.71-.91-5-3.38-5.47-2.44-.46-4.38,1.09-4.92,3.92-.53,2.8.71,4.9,3.11,5.36Z"/>
    <path class="cls-3" d="M294.76,125.06c-.09,1.12.02,1.71.36,2.4.56,1.05,1.74,1.82,3.29,2.11,2.35.45,3.94-.32,4.27-2.03.18-.94-.15-1.86-.87-2.38-.58-.43-1.3-.79-4.33-2.12-2.69-1.14-3.59-1.69-4.57-2.7-1.66-1.71-2.31-3.94-1.84-6.41.89-4.69,5.23-6.92,11.23-5.78,3.87.74,6.6,2.49,7.81,5.09.57,1.15.76,2.13.83,3.95l-6.59-.53c.01-2.05-.93-3.08-3.24-3.52-1.86-.35-3.42.39-3.69,1.79-.16.85.17,1.58,1.06,2.22q.56.39,4.01,1.81c2.22.93,3.58,1.73,4.6,2.68,1.93,1.79,2.64,4.04,2.11,6.84-.44,2.28-1.54,4.09-3.2,5.2-2.09,1.37-4.94,1.74-8.5,1.06-2.59-.49-5.04-1.53-6.51-2.79-1.36-1.14-2.24-2.67-2.54-4.53-.17-.79-.18-1.52-.13-2.96l6.45.6Z"/>
    <path class="cls-3" d="M311.59,127.16c1.16-6.09,5.8-9.22,11.95-8.04,6.15,1.17,9.31,5.79,8.16,11.81-1.16,6.06-5.94,9.32-12,8.16-6.12-1.17-9.28-5.81-8.11-11.93ZM317.42,128.24c-.64,3.38.55,5.72,3.2,6.23,2.65.51,4.55-1.18,5.19-4.56.65-3.41-.52-5.72-3.11-6.21-2.68-.51-4.65,1.2-5.29,4.55Z"/>
    <path class="cls-3" d="M333.36,131.31c1.16-6.09,5.8-9.22,11.95-8.04,6.15,1.17,9.31,5.79,8.16,11.82-1.16,6.06-5.94,9.31-12,8.16-6.12-1.17-9.28-5.81-8.11-11.93ZM339.19,132.39c-.64,3.38.55,5.72,3.2,6.23,2.65.51,4.55-1.18,5.19-4.56.65-3.41-.52-5.72-3.11-6.21-2.68-.51-4.65,1.2-5.29,4.55Z"/>
    <path class="cls-3" d="M354.15,144.93c.46-1.4.76-2.66,1.12-4.55l1.79-9.38c.4-2.1.58-3.39.63-4.65l6.06,1.16-.24,1.28c-.04.18-.15.63-.19.85,2.27-1.46,4.27-1.87,6.77-1.39,2.1.4,3.67,1.3,4.58,2.64.99,1.45,1.22,3.04.76,5.45l-1.46,7.65c-.34,1.77-.54,3.31-.63,4.61l-6.33-1.21c.46-1.43.77-2.69,1.12-4.55l1.19-6.24c.23-1.22.21-1.76-.06-2.35-.29-.62-.93-1.06-1.85-1.24-1.71-.33-3.43.45-5.15,2.33l-1.17,6.15c-.33,1.74-.51,3.03-.63,4.64l-6.3-1.2Z"/>
  </g>
  <polygon class="cls-1" points="51.57 53.85 76.15 58.59 48.98 99.55 24.74 94.21 51.57 53.85"/>
  <polygon class="cls-1" points="91.53 61.21 116.1 65.95 88.94 106.91 64.7 101.58 91.53 61.21"/>
  <polygon class="cls-1" points="74.71 289.01 98.18 295.43 72.13 334.71 48.83 327.96 74.71 289.01"/>
  <polygon class="cls-1" points="108.4 298.25 131.86 304.67 105.81 343.95 82.51 337.2 108.4 298.25"/>
  <polygon class="cls-1" points="413.26 378.89 436.72 385.31 410.67 424.59 387.38 417.84 413.26 378.89"/>
  <polygon class="cls-1" points="447.49 387.98 470.95 394.4 444.9 433.68 421.61 426.93 447.49 387.98"/>
  <polygon class="cls-1" points="473.11 132.6 497.68 137.34 470.52 178.3 446.28 172.97 473.11 132.6"/>
  <polygon class="cls-1" points="435.37 125.54 459.95 130.28 432.79 171.24 408.55 165.91 435.37 125.54"/>
  <polyline class="cls-1" points="37.8 243.42 62.32 238.74 91.61 278.41 67.31 283.59"/>
  <polyline class="cls-1" points="71.27 236.62 95.79 231.94 125.08 271.61 100.78 276.79"/>
  <polyline class="cls-1" points="381.64 173.58 406.16 168.89 435.45 208.57 411.15 213.74"/>
  <polygon class="cls-1" points="446.28 206.45 464.69 202.83 442.65 172.93 416.6 167.66 446.28 206.45"/>
</svg>