<?xml version="1.0" encoding="UTF-8"?>
<svg id="Layer_1" data-name="Layer 1" xmlns="http://www.w3.org/2000/svg" version="1.1" viewBox="0 0 113.75 119.09">
  <defs>
    <style>
      .cls-1, .cls-2, .cls-3, .cls-4 {
        stroke: #000;
        stroke-miterlimit: 10;
      }

      .cls-1, .cls-5 {
        fill: #000;
      }

      .cls-2 {
        fill: #e70051;
      }

      .cls-5, .cls-6 {
        stroke-width: 0px;
      }

      .cls-3 {
        fill: #e91a00;
      }

      .cls-4 {
        fill: #00e90d;
      }

      .cls-6 {
        fill: #fff;
      }
    </style>
  </defs>
  <path class="cls-2" d="M10.83.5v118.09h51.45v-15.68H27.98l51.45-32.83-10.29-14.21-44.59,31.85.49-24.99S36.31-2.44,71.59,33.82c35.28,36.26,18.62,84.77,18.62,84.77h23.03c-.53-31.85-28.91-74.97-18.62-98.49-.12-7.52,16.66-19.6,16.66-19.6h-9.77c-20.43,0-30.56,8.82-50.99,8.82C45.78,9.32,30.76.5,26.02.5h-15.19Z"/>
  <g>
    <path class="cls-4" d="M66.44,49.67c0,7.98-6.47,14.45-14.45,14.45s-14.45-6.47-14.45-14.45,6.47-14.45,14.45-14.45c3.59,0,6.87,1.31,9.4,3.48,3.09,2.65,5.05,6.58,5.05,10.98Z"/>
    <circle class="cls-5" cx="45.93" cy="57.44" r="4.29"/>
    <path class="cls-1" d="M38.34,53.15l19.47-16.36s-5.7-3.75-13.38.87-6.1,15.49-6.1,15.49Z"/>
    <circle class="cls-6" cx="45.47" cy="59.96" r="1.61"/>
    <polyline class="cls-1" points="28.76 84.72 30.38 87.13 32.31 85.92 30.54 83.45"/>
    <polyline class="cls-1" points="34.24 80.8 37.54 85.29 39.83 83.45 36.37 79.28"/>
    <polyline class="cls-1" points="41.02 75.96 43.46 79.28 45.47 77.62 43.25 74.37"/>
    <polyline class="cls-1" points="47.91 71.04 51.09 75.98 53.4 74.37 50.22 69.39"/>
    <line class="cls-1" x1="79.43" y1="70.08" x2="68.87" y2="76.82"/>
    <polyline class="cls-1" points="35.23 98.29 32.31 94.8 35.23 92.71 37.54 96.81"/>
    <polyline class="cls-1" points="42.42 93.7 37.54 90.06 39.98 88.73 44.82 92.17"/>
    <polyline class="cls-1" points="47.91 90.2 45.47 87.97 48.74 86.26 50.65 88.23"/>
    <polyline class="cls-1" points="53.4 86.26 50.65 82.28 53.4 80.37 56.98 84.4"/>
    <polyline class="cls-1" points="53.4 67.12 55.57 70.08 58.32 68.6 55.86 65.36"/>
    <path class="cls-3" d="M62.04,80.37s-7.71,2.42-2.35-2.7l16.63-11.07,2.32,3.48-16.6,10.29Z"/>
  </g>
</svg>